<svg xmlns="http://www.w3.org/2000/svg" viewBox="0 0 470 470" fill="#808"><path d="M447.1 212c-2.5-14.5-9.1-32.4-18-46.6-7.1-11.4-22-26.1-35.5-34.6-27.6-17.3-82-35.9-128.1-39.8-65.1-6.6-169.9 15.7-215.1 65-10.4 11.3-18.6 24.6-23.7 39.6-7.1 21.1-6.8 37.2-3 56 .9 4.2 3.4 12 5 16C40 294.9 58.3 316 82 333.6c109.5 81.3 353.5 59 366.5-87 .6-5.7.5-23.5-1.4-34.6zm-48.7 100.1c-8.5 8.4-18.3 15.6-28.6 21.6-51.6 30.1-119.7 33.9-177.7 25.4-56.9-8.3-123.2-37.3-147-94-4.1-9.7-6.5-20.2-6.9-30.7-1.1-24.4 8.3-48 24.7-65.9C101 127 166.7 112 220.6 107.6c41.8-3.4 82.2 4.1 121.8 17.6 36.8 12.6 69 32 83.4 70.2 10.5 27.9 8.6 60.2-5 86.7-5.8 11.3-13.4 21.3-22.4 30z"></path></svg>